<svg id="Capa_1" enable-background="new 0 0 512 512" height="512" viewBox="0 0 512 512" width="512" xmlns="http://www.w3.org/2000/svg"><g><g><g clip-rule="evenodd" fill-rule="evenodd"><path d="m30 244.799v211.374c0 12.375 10.124 22.5 22.5 22.5h407c12.375 0 22.5-10.124 22.5-22.5v-211.374c-150.667 0-301.333 0-452 0zm190.825 185.937v-138l115.501 69z" fill="#e4ecf4"/><path d="m220.825 292.736v138l115.5-69z" fill="#ed6e8c"/><path d="m7.5 148.596v73.703c0 12.375 10.124 22.5 22.5 22.5h114.629c-9.251-39.565-18.502-79.13-27.753-118.695l-86.876-.008c-12.375 0-22.5 10.125-22.5 22.5z" fill="#9c9c9f"/><path d="m130.6 184.799 14.029 60h65.968l-14.03-60z" fill="#e4ecf4"/><path d="m196.567 184.799 14.03 60h65.968l-14.03-60z" fill="#9c9c9f"/><path d="m262.535 184.799 14.03 60h65.967l-14.029-60z" fill="#e4ecf4"/><path d="m328.503 184.799 14.029 60h65.968l-14.029-60z" fill="#9c9c9f"/><path d="m394.471 184.799 14.029 60h65.968l-14.029-60z" fill="#e4ecf4"/><path d="m460.439 184.799 14.029 60h7.532 22.5v-60z" fill="#9c9c9f"/><path d="m449.326 42.28 1.069 61.605 42.723-10.773-14.67-58.179z" fill="#e4ecf4"/><path d="m385.361 58.405 1.069 61.609 63.965-16.129-1.069-61.605z" fill="#9c9c9f"/><path d="m321.396 74.534 1.069 61.608 63.965-16.128-1.069-61.609z" fill="#e4ecf4"/><path d="m257.431 90.663 1.069 61.608 63.965-16.129-1.069-61.608z" fill="#9c9c9f"/><path d="m193.466 106.791 1.069 61.609 63.965-16.129-1.069-61.608z" fill="#e4ecf4"/><path d="m116.876 126.104 13.662 58.433 63.997-16.137-1.069-61.609z" fill="#9c9c9f"/><path d="m7.5 148.596v73.703c0 12.375 10.124 22.5 22.5 22.5h22.5c-12.375 0-22.5-10.124-22.5-22.5v-73.703c0-12.326 10.044-22.417 22.351-22.498l-22.351-.002c-12.375 0-22.5 10.125-22.5 22.5z" fill="#7e7d83"/><path d="m30 244.799v211.374c0 12.375 10.124 22.5 22.5 22.5h22.5c-12.375 0-22.5-10.124-22.5-22.5v-211.374z" fill="#c6daec"/><path d="m220.825 292.736v138l22.5-13.441v-111.118z" fill="#db4b6d"/></g><g><path d="m459.5 342.299h-15v-45h15zm0-60h-15v-15h15z" fill="#fff"/></g><g><path d="m97.5 456.173h-15v-15h15zm-30 0h-15v-15h15z" fill="#fff"/></g><g><path d="m86.208 148.596h15v15h-15z" fill="#fff"/></g><g><path d="m86.208 207.299h15v15h-15z" fill="#fff"/></g></g><g><path d="m368.988 177.299v15h19.535l10.522 45h-50.564l-10.522-45h16.028v-15h-164.068l312.305-78.748-18.337-72.724-189.034 47.665 3.667 14.545 15.541-3.919.802 46.206-49.028 12.362-.802-46.206 18.94-4.776-3.667-14.545-164.332 41.437h-44.766v15h39.717l24.248 103.702h-105.173c-8.271 0-15-6.729-15-15v-73.703c0-8.271 6.729-15 15-15h26.208v-15h-26.208c-16.542 0-30 13.458-30 30v73.703c0 16.542 13.458 30 30 30h114.629 9.456 81.996v-15h-19.536l-10.522-45h50.564l10.522 45h-16.028v15h260.919v-75h-143.012zm34.939 15h50.564l10.522 45h-50.564zm-267.823-16.901-10.247-43.825 60.274-15.198.802 46.206zm257.66-64.968-.802-46.207 49.029-12.363.802 46.207zm90.248-22.756-26.282 6.627-.802-46.207 16.082-4.055zm-155.014-7.322 49.029-12.363.802 46.206-49.029 12.363zm-78.1 66.101-49.029 12.363-.802-46.206 49.028-12.362zm-49.757 90.846h-50.564l-10.522-45h50.564zm70.85-45h50.564l10.522 45h-50.564zm225.009 45h-16.583l-10.522-45h27.105z"/><path d="m22.5 267.299h15v136.375h-15z"/><path d="m474.5 456.173c0 8.271-6.729 15-15 15h-37.5v15h37.5c16.542 0 30-13.458 30-30v-188.874h-15z"/><path d="m37.5 456.173v-37.499h-15v37.499c0 16.542 13.458 30 30 30h354.5v-15h-354.5c-8.271 0-15-6.729-15-15z"/><path d="m268.29 329.827 7.692-12.877-62.657-37.431v164.434l137.624-82.217-62.089-37.092-7.692 12.877 40.533 24.215-93.376 55.783v-111.567z"/></g></g></svg>