<svg id="Capa_1" enable-background="new 0 0 512 512" height="512" viewBox="0 0 512 512" width="512" xmlns="http://www.w3.org/2000/svg"><g><g><g fill="#ff748f"><path d="m166.133 504.438c-32.275-1.287-59.3-25.347-64.098-57.55l-32.46-218.175h68.854l41.943 137.894z"/><path d="m296.81 228.713 34.818 137.863-41.942 137.924h-67.372l-41.942-137.894 34.818-137.893z"/><path d="m442.425 228.713-32.461 218.175c-4.798 32.203-31.822 56.263-64.098 57.55l-14.238-137.863 41.943-137.863h68.854z"/></g><path d="m441.458 203.761c5.408-28.728-12.332-56.743-40.613-64.137l-.187-.049-.86-2.777c-8.304-26.806-35.267-43.235-62.897-38.325l-2.976.529-2.737-3.324c-17.474-21.225-47.829-26.509-71.447-12.438l-3.741 2.229-3.741-2.229c-23.619-14.071-53.974-8.786-71.448 12.439l-2.735 3.323-2.976-.529c-27.63-4.911-54.593 11.519-62.897 38.324l-.86 2.777-.187.049c-28.281 7.394-46.021 35.409-40.614 64.137v.001z" fill="#fbf4ad"/><path d="m135.257 26.491c-1.933-1.969-3.334-4.396-4.072-7.054l-.001-.004c-2.375-8.557-11.168-13.634-19.766-11.411l-.003.001c-2.673.691-5.477.691-8.15 0l-.003-.001c-8.598-2.222-17.391 2.854-19.766 11.411l-.001.004c-.738 2.658-2.139 5.086-4.072 7.054-6.22 6.334-6.22 16.484 0 22.818 1.933 1.968 3.334 4.396 4.072 7.054l.001.004c2.375 8.557 11.168 13.634 19.766 11.411l.003-.001c2.673-.691 5.477-.691 8.15 0l.003.001c8.598 2.222 17.391-2.854 19.766-11.411l.001-.004c.738-2.658 2.139-5.086 4.072-7.054 6.22-6.334 6.22-16.483 0-22.818z" fill="#f8e86a"/><path d="m414.317 73.146c-1.933-1.969-3.334-4.396-4.072-7.054l-.001-.004c-2.375-8.557-11.168-13.634-19.766-11.411l-.003.001c-2.673.691-5.477.691-8.15 0l-.003-.001c-8.598-2.222-17.391 2.854-19.766 11.411l-.001.004c-.738 2.658-2.139 5.086-4.072 7.054-6.22 6.334-6.22 16.484 0 22.818 1.933 1.968 3.334 4.396 4.072 7.054l.001.004c2.375 8.557 11.168 13.634 19.766 11.411l.003-.001c2.673-.691 5.477-.691 8.15 0l.003.001c8.598 2.222 17.391-2.854 19.766-11.411l.001-.004c.738-2.658 2.139-5.086 4.072-7.054 6.22-6.335 6.22-16.484 0-22.818z" fill="#f8e86a"/><path d="m209.29 461.681 13.024 42.819h50.772c-23.286-10.746-44.756-25.259-63.796-42.819z" fill="#fd5f7e"/><path d="m120.671 253.406c0-8.326.361-16.558 1.03-24.693h-52.126l32.461 218.175c4.798 32.203 31.823 56.263 64.098 57.55l8.453-81.832c-33.75-46.476-53.916-105.262-53.916-169.2z" fill="#fd5f7e"/><path d="m222.314 504.5h-53.453c-.916 0-1.822-.021-2.728-.062l-27.704-275.725h76.761z" fill="#f8d070"/><path d="m373.571 228.713-27.704 275.725c-.906.041-1.812.062-2.728.062h-53.453l7.124-275.787z" fill="#f8d070"/><path d="m165.45 97.619c-24.038-.055-45.916 15.512-53.248 39.178l-.86 2.777-.187.049c-28.281 7.394-46.021 35.409-40.614 64.136v.001h54.273c6.557-38.906 20.679-74.911 40.636-106.141z" fill="#f8e86a"/><path d="m426.837 191.642h-341.674c-20.475 0-37.074 16.598-37.074 37.074 0 20.475 16.598 37.074 37.074 37.074h341.674c20.475 0 37.074-16.598 37.074-37.074 0-20.476-16.599-37.074-37.074-37.074z" fill="#dedede"/><path d="m154.726 390.901 11.408 113.537c.906.041 1.812.062 2.728.062h53.453l-.833-32.253c-26.952-21.876-49.714-49.556-66.756-81.346z" fill="#fbc072"/><path d="m120.671 253.406c0-21.244 2.228-41.919 6.438-61.765h-41.946c-20.475 0-37.074 16.598-37.074 37.073 0 20.475 16.598 37.074 37.074 37.074h35.776c-.168-4.105-.268-8.231-.268-12.382z" fill="#d0d0ce"/></g><g><path d="m183.689 156.935c4.142 0 7.5-3.357 7.5-7.5v-13.895c0-4.142-3.358-7.5-7.5-7.5s-7.5 3.358-7.5 7.5v13.895c-.001 4.143 3.357 7.5 7.5 7.5z"/><path d="m328.312 156.935c4.142 0 7.5-3.357 7.5-7.5v-13.895c0-4.142-3.358-7.5-7.5-7.5s-7.5 3.358-7.5 7.5v13.895c0 4.143 3.358 7.5 7.5 7.5z"/><path d="m280.719 153.949c2.721-3.123 2.396-7.861-.727-10.582-3.122-2.721-7.861-2.396-10.582.727-7.089 8.134-19.712 8.158-26.821 0-2.721-3.123-7.459-3.448-10.582-.727s-3.448 7.459-.727 10.582c13.082 15.011 36.372 14.995 49.439 0z"/><path d="m140.606 21.226c-1.04-1.059-1.8-2.375-2.198-3.809-3.446-12.414-16.396-19.892-28.87-16.667-1.41.368-2.94.379-4.403 0-12.475-3.222-25.425 4.254-28.87 16.667-.113.267-.504 2.085-2.197 3.809-9.023 9.188-9.023 24.139 0 33.328 1.04 1.059 1.799 2.375 2.197 3.809 3.445 12.414 16.397 19.892 28.87 16.667.286-.036 2.041-.601 4.368-.009 12.681 3.238 25.46-4.33 28.906-16.663.397-1.43 1.156-2.746 2.196-3.805 9.024-9.187 9.024-24.138.001-33.327m-10.703 22.819c-2.805 2.857-4.857 6.404-5.935 10.26-1.323 4.705-6.088 7.374-10.679 6.202-6.561-1.695-12.031.02-11.93.007-4.599 1.177-9.368-1.585-10.64-6.165-1.075-3.872-3.131-7.435-5.947-10.304-3.332-3.394-3.332-8.915 0-12.309 4.745-4.833 5.997-10.431 5.955-10.331 1.282-4.571 6.056-7.321 10.66-6.131 3.893 1.006 8.01 1.006 11.903 0 4.574-1.193 9.387 1.547 10.667 6.158 1.075 3.872 3.131 7.435 5.947 10.303 3.331 3.395 3.331 8.916-.001 12.31z"/><path d="m471.415 228.709c0-16.165-8.65-30.346-21.564-38.161-1.144-26.219-18.227-48.812-43.226-57.043-1.383-4.196-3.232-8.226-5.455-12.036 13.48-3.965 16.373-16.575 16.312-16.475.398-1.422 1.156-2.73 2.19-3.784 9.022-9.188 9.022-24.139 0-33.328-1.04-1.059-1.799-2.375-2.197-3.809-3.446-12.414-16.396-19.891-28.87-16.667-1.496.374-2.958.369-4.374.008-11.959-3.289-25.367 3.928-28.9 16.66-.107.253-.501 2.082-2.197 3.809-5.908 6.016-7.921 14.499-6.091 22.221-3.362-.02-6.733.227-10.101.752-19.771-23.967-54.129-30.035-80.942-14.126-26.721-15.854-61.101-9.925-80.94 14.125-30.447-4.734-60.041 13.358-69.683 42.648-24.999 8.231-42.083 30.825-43.227 57.044-12.914 7.816-21.564 21.997-21.564 38.162 0 18.544 11.385 34.473 27.531 41.181l26.499 178.102c5.499 36.923 37.277 64.008 74.244 64.008 42.242 0 154.039-.021 177.367-.071 35.935-1.461 65.856-28.341 71.16-63.938l26.498-178.101c16.145-6.707 27.53-22.637 27.53-41.181zm-107.578-150.318c4.745-4.833 5.996-10.431 5.954-10.331 1.28-4.563 6.04-7.312 10.633-6.138.798.101 5.591 1.646 11.93.007.009-.002.018-.005.026-.007 4.597-1.176 9.369 1.585 10.64 6.165 1.075 3.873 3.131 7.436 5.947 10.303 3.332 3.394 3.332 8.916 0 12.31-2.815 2.868-4.872 6.431-5.946 10.303-1.471 4.902-6.287 7.279-10.64 6.166-4.584-1.172-8.249-.88-12.821.175-5.301.794-8.341-3.377-8.241-3.302-1.31-1.672-1.51-3.091-1.957-4.389-1.11-3.24-3.013-6.393-5.525-8.952-3.332-3.394-3.332-8.916 0-12.31zm-285.987 106.339c3.273-18.133 16.707-33.024 35.201-37.859l.188-.049c5.284-1.383 5.532-6.639 6.126-7.813 7.17-23.145 30.568-37.4 54.422-33.16 1.356 0 6.428 2.345 10.078-2.089l2.736-3.323c15.232-18.502 41.231-23.028 61.82-10.763l3.741 2.229c2.365 1.409 5.312 1.409 7.677 0l3.741-2.229c20.588-12.266 46.587-7.74 61.82 10.762l2.737 3.324c3.64 4.421 8.8 2.089 10.079 2.088 5.817-1.033 11.652-.998 17.394.101 3.656 11.342 15.593 18.514 27.585 15.973 7.975 9.304 9.694 18.361 10.303 19.864.74 2.388 2.61 4.343 5.454 5.086 18.492 4.835 31.926 19.725 35.198 37.858-2.191-.36-4.907-.596-7.309-.596-356.981.023-343.365-.327-348.991.596zm-22.265 43.979c0-12.038 7.234-22.412 17.579-27.023 8.214-3.66-8.059-2.536 353.677-2.552 16.195 0 29.574 13.183 29.574 29.574 0 13.5-9.096 24.908-21.479 28.439-6.516 1.852 15.3 1.136-349.776 1.136-17.685-.37-29.575-14.288-29.575-29.574zm226.793 268.291h-52.755c-.058-2.263-5.506-213.135-5.779-223.716h64.313c-.076 2.916-5.416 209.631-5.779 223.716zm-172.927-51.216-25.668-172.521c1.479.046-.454.014 51.585.021l11.816 117.592c.414 4.121 4.092 7.123 8.212 6.713 4.121-.414 7.127-4.091 6.713-8.213l-11.665-116.092h58.394c.058 2.263 5.506 213.135 5.779 223.716h-41.695l-7.799-77.623c-.414-4.121-4.089-7.133-8.212-6.713-4.121.414-7.127 4.091-6.713 8.213l7.544 75.085c-24.793-4.654-44.481-24.605-48.291-50.178zm318.766-172.521-25.668 172.52c-3.81 25.574-23.499 45.525-48.291 50.18l13.945-138.789c.414-4.122-2.591-7.799-6.713-8.213-4.125-.416-7.798 2.591-8.213 6.713l-14.198 141.326h-41.696c.075-2.916 5.415-209.631 5.779-223.716h58.394l-5.264 52.389c-.54 5.375 4.599 9.49 9.678 7.92 2.794-.863 4.936-3.328 5.247-6.42l5.415-53.889c53.092-.008 50.302.018 51.585-.021z"/></g></g></svg>